# xmcd
#
# Track frame offsets:
#	150
#	24222
#	48767
#	82210
#	108853
#	130342
#	147122
#	165997
#	192826
#	226452
#	247985
#	280721
#	307572
#
# Disc length: 4352 seconds
# Revision: 2
# Processed by: cddbd v1.5.2PL0 Copyright (c) Steve Scherf et al.
# Submitted via: dBpowerAMP V12.0
#
DISCID=9710fe0d
DTITLE=Dave Specter - Spectified
DYEAR=2010
DGENRE=Blues
TTITLE0=Stick To The Hip
TTITLE1=Octavate'n
TTITLE2=Soul Serenade
TTITLE3=Blues Call
TTITLE4=Alley Walk
TTITLE5=Wash Out
TTITLE6=The Funky Hunky
TTITLE7=Rumba and Tonic
TTITLE8=Azulado
TTITLE9=Slick Pick
TTITLE10=See See Rider
TTITLE11=Lumpus D' Rumpus
TTITLE12=Alley Walk Acoustic
EXTD=
EXTT0=
EXTT1=
EXTT2=
EXTT3=
EXTT4=
EXTT5=
EXTT6=
EXTT7=
EXTT8=
EXTT9=
EXTT10=
EXTT11=
EXTT12=
PLAYORDER=
